<?xml version="1.0" encoding="UTF-8" standalone="no"?>
<!-- Created with Inkscape (http://www.inkscape.org/) -->

<svg
   version="1.1"
   id="svg152"
   width="682.66669"
   height="682.66669"
   viewBox="0 0 682.66669 682.66669"
   sodipodi:docname="Mantis-Kopf.svg"
   inkscape:version="1.1.2 (0a00cf5339, 2022-02-04)"
   xmlns:inkscape="http://www.inkscape.org/namespaces/inkscape"
   xmlns:sodipodi="http://sodipodi.sourceforge.net/DTD/sodipodi-0.dtd"
   xmlns="http://www.w3.org/2000/svg"
   xmlns:svg="http://www.w3.org/2000/svg">
  <defs
     id="defs156" />
  <sodipodi:namedview
     id="namedview154"
     pagecolor="#ffffff"
     bordercolor="#999999"
     borderopacity="1"
     inkscape:pageshadow="0"
     inkscape:pageopacity="0"
     inkscape:pagecheckerboard="0"
     showgrid="false"
     inkscape:zoom="1.2875976"
     inkscape:cx="111.44786"
     inkscape:cy="325.0239"
     inkscape:window-width="2048"
     inkscape:window-height="1088"
     inkscape:window-x="0"
     inkscape:window-y="0"
     inkscape:window-maximized="1"
     inkscape:current-layer="g158"
     showguides="false">
    <inkscape:grid
       type="xygrid"
       id="grid7" />
  </sodipodi:namedview>
  <g
     inkscape:groupmode="layer"
     inkscape:label="Image"
     id="g158">
    <path
       style="fill:#000000;stroke-width:0.666665"
       d="m 307.98124,434.88819 c -2.82648,-1.39312 -4.69683,-4.07163 -6.18746,-8.86102 -1.35009,-4.33786 -2.48367,-16.69692 -1.53145,-16.69692 0.33507,0 2.59427,2.025 5.02044,4.5 l 4.41123,4.5 0.29672,5 c 0.32632,5.49856 1.64361,8.83908 4.40211,11.16335 l 1.7763,1.49669 -3.00001,-0.0119 c -1.65,-0.007 -3.98454,-0.49713 -5.18788,-1.09023 z m 19.72122,0.0865 c -0.19555,-0.19556 0.62352,-1.33463 1.82017,-2.53128 2.38946,-2.38946 3.4173,-5.3127 4.06084,-11.54924 0.4122,-3.99462 0.54407,-4.22253 5.0045,-8.64878 l 4.58116,-4.54605 v 3.10055 c 0,8.31794 -2.29744,17.50693 -5.19213,20.76682 -2.18243,2.45777 -8.97253,4.70999 -10.27454,3.40798 z m -12.14123,-17.81111 c -7.03197,-7.14916 -14.73611,-16.63082 -19.63615,-24.16667 -2.38418,-3.66667 -5.76016,-8.33494 -7.50218,-10.37395 -7.13663,-8.35332 -17.71762,-26.54682 -22.55603,-38.78402 -1.04206,-2.63554 -2.16285,-4.23103 -3.60498,-5.13181 -3.27753,-2.04722 -13.31415,-12.47933 -12.80258,-13.30707 0.25034,-0.40506 1.26247,-0.73942 2.24916,-0.743 2.84619,-0.0104 8.48323,-2.98271 12.1355,-6.39898 8.74339,-8.17842 13.97547,-24.29094 14.21876,-43.78753 0.12157,-9.74253 -0.64597,-8.78712 7.57851,-9.43346 9.30882,-0.73155 18.6638,-4.66206 25.30262,-10.63093 l 3.42117,-3.07592 h 7.73538 c 4.25446,0 7.73538,0.24119 7.73538,0.53597 0,1.05011 9.1327,7.45668 13.36571,9.37602 2.36819,1.07378 6.70471,2.4671 9.63671,3.09627 l 5.33092,1.14393 -0.2293,4.38713 c -0.32457,6.20971 1.04842,18.36354 2.97493,26.33436 4.40178,18.21209 13.33099,27.7034 27.26739,28.9839 l 5.17797,0.47576 -8.09121,7.79779 c -6.36171,6.131 -8.37115,8.50798 -9.40084,11.12031 -4.43841,11.26034 -14.8583,29.21381 -21.32824,36.74856 -1.73167,2.01667 -5.18228,6.81667 -7.66802,10.66667 -2.48573,3.85 -6.18985,9.1 -8.23137,11.66667 -4.33314,5.44778 -16.76756,18.33333 -17.69147,18.33333 -0.34849,0 -2.77297,-2.175 -5.38774,-4.83333 z m 14.57334,-15.83333 0.89512,-1.66667 h -9.83861 -9.8386 l 3.13858,4.66667 c 1.72622,2.56666 3.96195,5.97844 4.96828,7.58173 l 1.82971,2.91507 3.9752,-5.91507 c 2.18636,-3.25329 4.37801,-6.66507 4.87032,-7.58173 z m -39.75831,-83.50389 c 0.13666,-1.65183 -0.28928,-3.38715 -1.25168,-5.09951 -2.50613,-4.45905 -6.74789,-5.52943 -7.17418,-1.81035 -0.33091,2.88699 0.35859,4.81366 2.6612,7.4362 1.56052,1.77733 2.52905,2.32924 3.8237,2.17889 1.47906,-0.17176 1.76426,-0.56927 1.94096,-2.70523 z m 64.68744,0.5221 c 3.75496,-4.27666 4.05653,-9.68488 0.54003,-9.68488 -1.5533,0 -4.3481,2.51778 -5.68648,5.12284 -0.81786,1.59191 -1.01291,5.72348 -0.30368,6.43271 1.11648,1.11649 3.56538,0.27595 5.45013,-1.87067 z m -117.5935,-0.57322 c -5.07054,-1.29596 -11.96846,-4.73888 -17.0669,-8.51851 -13.23094,-9.80849 -26.66526,-29.27704 -30.64109,-44.40397 -1.098,-4.17759 -1.28778,-6.36773 -0.97354,-11.23477 0.8089,-12.52828 3.97898,-20.08566 11.55236,-27.54046 5.89447,-5.8022 10.2675,-8.5683 19.27915,-12.19478 7.02568,-2.82729 8.47077,-2.9988 13.26656,-1.57461 6.18032,1.83536 8.36553,4.14247 18.59504,19.63237 14.57392,22.06833 18.97014,29.84884 19.84349,35.11934 1.48232,8.94554 -1.56209,28.86957 -5.77064,37.76573 -4.48377,9.47789 -9.66635,13.13749 -19.20839,13.56372 -3.1734,0.14174 -6.93784,-0.11868 -8.87604,-0.61406 z m -7.33332,-76.05523 c 6.01195,-2.51196 3.49905,-9.4473 -3.3527,-9.25308 -6.48209,0.18374 -8.42406,6.74759 -2.72923,9.2248 2.69795,1.1736 3.33373,1.17655 6.08193,0.0282 z m 155.51058,75.54918 c -6.15302,-1.44887 -10.25819,-5.28765 -13.83684,-12.93895 -4.18895,-8.95616 -5.94029,-18.24215 -5.96162,-31.60979 l -0.0132,-8.27646 2.69828,-4.9164 c 7.08941,-12.91728 26.45321,-42.16903 29.21776,-44.13756 5.82456,-4.14746 11.1746,-4.98894 17.62005,-2.77138 11.04778,3.80099 22.11756,11.68442 26.89585,19.15408 5.71349,8.93164 7.89547,23.83056 4.92717,33.64353 -2.06396,6.82331 -5.26766,13.54352 -9.72839,20.40675 -15.11848,23.26109 -35.09556,35.38411 -51.81905,31.44618 z m 29.31531,-76.7249 c 4.89529,-4.59888 -3.42097,-10.89588 -8.95607,-6.78145 -3.22996,2.40094 -2.47639,6.58329 1.49576,8.30154 2.05388,0.88845 5.68382,0.14883 7.46031,-1.52009 z m -140.06454,16.67287 c -6.56565,-12.32065 -26.12295,-42.15856 -30.15674,-46.00911 -1.4148,-1.35053 -3.87073,-3.18781 -5.45762,-4.08284 l -2.88526,-1.62732 4.88526,-1.9946 c 2.68689,-1.09704 6.46025,-2.54402 8.38525,-3.21552 1.925,-0.67151 3.49461,-1.38666 3.48802,-1.58922 -0.0282,-0.86812 -17.52326,-11.68411 -29.98802,-18.53955 -14.50103,-7.97537 -29.73005,-14.95969 -49.66667,-22.77808 -14.12434,-5.53904 -17.89544,-8.10898 -15.4636,-10.53817 1.93401,-1.9319 7.07375,-1.39732 16.4636,1.71235 22.71853,7.5238 53.77135,24.81022 79.4699,44.23915 l 5.13656,3.88341 8.86344,-2.3264 c 20.81129,-5.46236 33.87803,-7.25927 52.53011,-7.22384 15.81301,0.03 25.93179,1.30233 41.92242,5.27116 l 9.94567,2.46848 5.89929,-4.31981 c 26.92913,-19.71911 55.75476,-35.47271 77.69943,-42.46379 8.41399,-2.68051 11.36014,-3.12474 13.85899,-2.08968 2.52224,1.04475 2.58695,2.78386 0.1742,4.68196 -2.10575,1.6566 -3.05324,2.08558 -16.16666,7.3195 -20.80638,8.30439 -36.51302,15.75036 -52.00001,24.65139 -9.57659,5.50407 -23.32487,14.1764 -23.32991,14.71635 -0.002,0.20134 1.12158,0.75549 2.49658,1.23144 4.31307,1.49296 17.5,7.54075 17.5,8.02586 0,0.25465 -1.01505,0.94705 -2.25567,1.53867 -1.24062,0.5916 -3.38221,2.06476 -4.75909,3.27368 -3.49618,3.06968 -24.48874,35.2256 -30.29006,46.39761 -1.19,2.29167 -2.38525,4.16667 -2.6561,4.16667 -0.27085,0 -2.80559,-0.5916 -5.63276,-1.31467 -6.837,-1.74861 -13.83223,-5.51639 -18.25075,-9.83024 l -3.6072,-3.52176 h -9.01842 -9.01841 l -3.9832,3.68775 c -6.62013,6.12906 -15.57468,9.7497 -26.34407,10.65182 l -5.18427,0.43427 z"
       id="path569" />
  </g>
</svg>
